<svg width="59" height="85" viewBox="0 0 59 85" fill="none" xmlns="http://www.w3.org/2000/svg">
<path d="M43.4115 56.4194C43.64 56.1198 43.8672 55.8176 44.0969 55.518C45.0994 54.2694 46.1095 53.0324 47.162 51.834C48.1876 50.6112 49.2927 49.4655 50.3567 48.2799C51.4413 47.1149 52.5516 45.9769 53.6734 44.8492L55.7758 42.7327L53.6734 40.6047C52.54 39.4577 51.4143 38.3068 50.3182 37.1239C49.2349 35.9267 48.1195 34.763 47.0799 33.526C45.6269 31.857 44.2137 30.1481 42.8737 28.3672C43.6118 27.1906 44.3459 26.0128 45.1071 24.8504C49.371 18.3812 53.8133 12.0253 59 6.1335L49.2028 0C46.1891 7.25092 42.4322 14.039 38.4956 20.7151C36.5177 24.0467 34.4243 27.3051 32.3591 30.5802C31.4016 32.0872 30.453 33.5993 29.5007 35.1089C28.547 33.5993 27.5984 32.0872 26.6409 30.5802C24.5757 27.3051 22.4823 24.0467 20.5044 20.7151C16.5678 14.039 12.8109 7.25092 9.79718 0L0 6.1335C5.18674 12.0253 9.63161 18.3812 13.8955 24.8504C14.6566 26.0141 15.3908 27.1919 16.1288 28.3685C15.7656 28.8481 15.4011 29.3265 15.034 29.8035C14.0161 31.0662 12.9906 32.3199 11.9253 33.5299C10.8856 34.7707 9.7651 35.9293 8.68694 37.129C7.58567 38.3094 6.46001 39.4628 5.32537 40.6047L3.22165 42.7225L5.32537 44.8492C6.44332 45.9808 7.55614 47.1175 8.63688 48.285C9.70477 49.4693 10.8047 50.6189 11.8303 51.8417C13.1241 53.3295 14.3807 54.8519 15.5859 56.4271C14.835 57.5496 14.0957 58.6786 13.3397 59.7986C9.00268 66.2227 4.5899 72.6005 0 78.8665L9.79718 85C13.4065 78.1207 17.1955 71.3533 21.0602 64.6334C23.83 59.8166 26.6538 55.0358 29.5007 50.2679C32.3475 55.0358 35.17 59.8166 37.9399 64.6334C41.8046 71.3533 45.5935 78.1207 49.2028 85L59 78.8665C54.4101 72.6005 49.9973 66.2227 45.6629 59.7986C44.9056 58.676 44.1637 57.5445 43.4115 56.4194ZM47.2467 42.7302C46.8334 43.1275 46.4304 43.5364 46.012 43.9273C44.8286 44.9933 43.6849 46.1004 42.4643 47.1291C41.3694 48.0948 40.2361 49.0193 39.0963 49.9387C37.4547 47.4428 35.831 44.9354 34.2086 42.4254C35.6834 39.9926 37.18 37.57 38.6689 35.1436C39.9306 36.1492 41.1589 37.1869 42.3693 38.2451C43.6053 39.2867 44.7657 40.4041 45.9619 41.4868C46.3983 41.8931 46.8168 42.3174 47.2467 42.7302ZM16.5409 47.1226C15.3202 46.094 14.174 44.9907 12.9932 43.9234C12.5709 43.5312 12.1679 43.1211 11.752 42.7225C12.1794 42.311 12.5966 41.8879 13.0304 41.4816C14.2292 40.4015 15.3844 39.2789 16.623 38.2374C17.8257 37.174 19.072 36.153 20.3273 35.1372C21.8187 37.5649 23.3166 39.99 24.7939 42.4254C23.1716 44.9354 21.5466 47.4428 19.905 49.94C18.7601 49.0231 17.6421 48.0819 16.5409 47.1226Z" fill="#BC8417"/>
</svg>
