<svg width="59" height="86" viewBox="0 0 59 86" fill="none" xmlns="http://www.w3.org/2000/svg">
<path d="M43.4115 56.5967C43.64 56.2961 43.8672 55.993 44.0969 55.6924C45.0994 54.4399 46.1095 53.1991 47.162 51.9969C48.1876 50.7702 49.2927 49.6209 50.3567 48.4316C51.4413 47.263 52.5516 46.1214 53.6734 44.9902L55.7758 42.867L53.6734 40.7323C52.54 39.5817 51.4143 38.4272 50.3182 37.2405C49.2349 36.0396 48.1195 34.8723 47.0799 33.6314C45.6269 31.9571 44.2137 30.2428 42.8737 28.4563C43.6118 27.2761 44.3459 26.0945 45.1071 24.9285C49.371 18.439 53.8133 12.0631 59 6.15278L49.2028 0C46.1891 7.27371 42.4322 14.0831 38.4956 20.7802C36.5177 24.1223 34.4243 27.3909 32.3591 30.6763C31.4016 32.188 30.453 33.7049 29.5007 35.2193C28.547 33.7049 27.5984 32.188 26.6409 30.6763C24.5757 27.3909 22.4823 24.1223 20.5044 20.7802C16.5678 14.0831 12.8109 7.27371 9.79718 0L0 6.15278C5.18674 12.0631 9.63161 18.439 13.8955 24.9285C14.6566 26.0958 15.3908 27.2774 16.1288 28.4576C15.7656 28.9388 15.4011 29.4186 15.034 29.8972C14.0161 31.1638 12.9906 32.4215 11.9253 33.6352C10.8856 34.88 9.7651 36.0422 8.68694 37.2457C7.58567 38.4298 6.46001 39.5868 5.32537 40.7323L3.22165 42.8567L5.32537 44.9902C6.44332 46.1253 7.55614 47.2656 8.63688 48.4368C9.70477 49.6248 10.8047 50.778 11.8303 52.0047C13.1241 53.4971 14.3807 55.0243 15.5859 56.6044C14.835 57.7305 14.0957 58.863 13.3397 59.9865C9.00268 66.4308 4.5899 72.8287 0 79.1143L9.79718 85.2671C13.4065 78.3662 17.1955 71.5775 21.0602 64.8365C23.83 60.0046 26.6538 55.2087 29.5007 50.4258C32.3475 55.2087 35.17 60.0046 37.9399 64.8365C41.8046 71.5775 45.5935 78.3662 49.2028 85.2671L59 79.1143C54.4101 72.8287 49.9973 66.4308 45.6629 59.9865C44.9056 58.8604 44.1637 57.7253 43.4115 56.5967ZM47.2467 42.8645C46.8334 43.263 46.4304 43.6732 46.012 44.0654C44.8286 45.1347 43.6849 46.2453 42.4643 47.2772C41.3694 48.2459 40.2361 49.1733 39.0963 50.0956C37.4547 47.5919 35.831 45.0766 34.2086 42.5587C35.6834 40.1182 37.18 37.6881 38.6689 35.2541C39.9306 36.2628 41.1589 37.3037 42.3693 38.3653C43.6053 39.4101 44.7657 40.531 45.9619 41.6171C46.3983 42.0247 46.8168 42.4504 47.2467 42.8645ZM16.5409 47.2707C15.3202 46.2388 14.174 45.1321 12.9932 44.0615C12.5709 43.668 12.1679 43.2566 11.752 42.8567C12.1794 42.444 12.5966 42.0196 13.0304 41.612C14.2292 40.5285 15.3844 39.4024 16.623 38.3576C17.8257 37.2908 19.072 36.2666 20.3273 35.2476C21.8187 37.6829 23.3166 40.1157 24.7939 42.5587C23.1716 45.0766 21.5466 47.5919 19.905 50.0969C18.7601 49.1772 17.6421 48.233 16.5409 47.2707Z" fill="#EE2F41"/>
</svg>
