<svg width="89" height="167" viewBox="0 0 89 167" fill="none" xmlns="http://www.w3.org/2000/svg">
<path d="M67.7829 112.137C67.1762 130.175 66.4316 148.205 65.1831 166.246H89C87.7565 148.205 87.0069 130.175 86.4052 112.137L85.6757 85.083L85.2394 58.0295L85.1642 53.4942L81.5215 51.1903L65.1029 40.8237L48.8572 30.2013C38.0017 23.1515 27.2089 16.0065 16.4562 8.80373L3.66279 0.232178L3.54496 15.826C3.44719 28.3612 3.28423 40.8964 3.05358 53.4316C2.86806 65.9643 2.65244 78.4995 2.34408 91.0348C1.81008 116.105 1.08555 141.176 0 166.246H23.8169C22.7288 141.176 22.0093 116.105 21.4703 91.0348C21.1619 78.4995 20.9463 65.9643 20.7608 53.4316C20.6279 45.9882 20.5628 38.5472 20.4725 31.1038C27.046 35.263 33.6094 39.4373 40.1453 43.6567L56.4861 54.1361L68.8735 62.3542L68.5125 85.083L67.7829 112.137Z" fill="#EFE4D1"/>
<path d="M27.5701 112.672L44.5327 129.635L61.4929 112.672L44.5327 95.7122L27.5701 112.672Z" fill="#EFE4D1"/>
</svg>
