<svg width="70" height="64" viewBox="0 0 70 64" fill="none" xmlns="http://www.w3.org/2000/svg">
<path fill-rule="evenodd" clip-rule="evenodd" d="M68.1747 0L69.2118 3.5609C70.4579 7.85367 69.583 12.5059 66.7194 16.6404C64.072 20.3951 60.3521 23.2572 56.0502 24.8493C53.3871 30.3746 48.1806 41.2157 48.1806 41.2157C48.5141 41.9474 49.289 42.8969 50.0051 43.7744C50.5624 44.4573 51.0841 45.0966 51.3344 45.5555C54.1809 50.8156 51.838 58.2712 49.0597 63.0219C48.4598 62.4215 47.8448 61.8049 47.2232 61.1818C45.7756 59.7303 44.2923 58.243 42.8801 56.8417C41.2541 60.638 38.335 63.206 34.9592 63.206C31.5835 63.206 28.6302 60.638 27.0128 56.7861C26.5764 57.2174 26.13 57.658 25.6781 58.1041C24.0182 59.7428 22.2852 61.4536 20.7051 63.0348C17.9269 58.284 15.5668 50.8284 18.4305 45.5684C18.6867 45.1122 19.2023 44.4745 19.7525 43.7938C20.467 42.9101 21.2401 41.9539 21.58 41.2285C21.58 41.2285 16.3777 30.3875 13.7317 24.8621C9.41547 23.2772 5.6813 20.4145 3.02407 16.6532C0.181785 12.5059 -0.693093 7.84083 0.553074 3.5609L1.59012 0L3.55753 3.13291C5.24754 5.81214 10.4968 12.5188 15.3534 12.9468H54.4285C59.2851 12.5102 64.5173 5.81214 66.2244 3.13291L68.1747 0ZM53.6176 22.1473V22.1401L53.6133 22.1486C53.6148 22.1482 53.6162 22.1477 53.6176 22.1473ZM53.6176 22.2V22.1473C60.7936 19.8951 65.7977 14.2681 66.3737 8.52134L63.6638 11.4402C62.5961 12.4764 61.4346 13.4106 60.1941 14.2308C58.9829 15.059 57.639 15.6727 56.2209 16.0454C54.8371 16.3614 53.1104 16.3597 51.5179 16.3581C51.4062 16.358 51.2952 16.3579 51.185 16.3579C47.2843 16.3322 22.4805 16.3322 18.5798 16.3579C16.8983 16.3707 15.0248 16.3836 13.5439 16.0454C12.1257 15.6731 10.7818 15.0593 9.57072 14.2308C8.3288 13.4109 7.1658 12.4767 6.09681 11.4402L3.38682 8.52134C3.95443 14.2693 8.96897 19.8974 16.1344 22.1529V22.2128H16.1856L23.2999 37.0128C23.5054 37.4747 23.7101 37.8918 23.8986 38.2756C24.5046 39.5101 24.9418 40.4008 24.6912 41.3313C24.3498 42.6011 23.607 43.58 22.8561 44.5696C22.0859 45.5845 21.3071 46.6107 20.9441 47.9737C20.297 50.3316 20.6887 52.89 21.1267 55.7512C21.2086 56.2865 21.2922 56.8324 21.3709 57.3895L27.7724 51.5817C28.4681 53.9271 29.3173 56.525 30.9689 58.2755C31.471 58.8116 32.0773 59.2389 32.7503 59.531C33.4234 59.8231 34.149 59.9737 34.8824 59.9737C35.6158 59.9737 36.3414 59.8231 37.0145 59.531C37.6876 59.2389 38.2938 58.8116 38.7959 58.2755C40.4475 56.525 41.2925 53.9271 41.9924 51.5817C41.9924 51.5817 48.0227 57.1841 48.6073 57.7533C49.1066 54.2181 49.5932 50.7728 48.8421 47.9523C48.4804 46.5862 47.7 45.5573 46.9281 44.5396C46.1789 43.5519 45.4376 42.5747 45.095 41.3099C44.8596 40.3882 45.2894 39.5056 45.8817 38.2892C46.0733 37.8958 46.2819 37.4674 46.4905 36.9914L53.5664 22.2H53.6176ZM35.0914 26.728L34.8567 26.9676C34.6099 26.6957 34.3724 26.4327 34.1432 26.1791L34.1431 26.1791C33.0919 25.0157 32.2169 24.0474 31.4425 23.2955C31.4307 23.2699 31.4164 23.2455 31.3999 23.2227L31.4383 23.2912C28.9289 20.8131 27.2218 20.2952 21.5799 20.2952C21.901 20.943 22.2 21.7399 22.5149 22.5793L22.5149 22.5793C23.6565 25.6219 25.0076 29.223 28.3826 28.3073C27.8972 27.6156 27.6083 26.8047 27.5467 25.9612C27.485 25.1177 27.653 24.2732 28.0326 23.518L34.3318 30.7425C32.5255 33.4238 29.8933 33.1564 27.1316 32.8758C26.2654 32.7878 25.3863 32.6985 24.5161 32.6985C24.7626 32.9706 25.0251 33.25 25.2947 33.537L25.2947 33.537C27.4806 35.8635 30.132 38.6853 28.468 42.1143C27.9148 43.2464 27.2308 43.9989 26.6011 44.6917C25.443 45.9659 24.4682 47.0383 24.8276 49.8995C25.4591 49.2662 26.0574 48.5894 26.6529 47.916L26.6529 47.9159C28.8743 45.4034 31.0558 42.936 34.7713 42.936C38.557 42.936 40.9431 45.5555 43.2843 48.1258C43.8569 48.7544 44.4268 49.38 45.0138 49.9637C45.6497 44.8535 42.1203 40.8517 37.2509 40.321C37.0647 40.3006 36.8585 40.2803 36.6379 40.2585C33.8943 39.9877 28.9046 39.4953 32.104 35.9341C32.3179 36.4167 32.6926 36.8295 33.0675 37.2424C33.4405 37.6534 33.8138 38.0645 34.0288 38.5448C34.994 37.1566 35.0083 35.5758 35.0228 33.9802C35.0326 32.8949 35.0425 31.8027 35.3517 30.7597C37.4571 28.3543 39.5583 25.9462 41.6551 23.5351C42.0348 24.2904 42.2027 25.1348 42.1411 25.9783C42.0795 26.8218 41.7905 27.6327 41.3052 28.3244C44.6762 29.24 46.0294 25.6377 47.1718 22.5964L47.1718 22.5963C47.4872 21.7566 47.7866 20.9596 48.1079 20.3124C40.8975 20.3043 40.1261 21.1579 35.8586 25.8805C35.6149 26.1502 35.3598 26.4325 35.0914 26.728ZM38.3392 36.6318C38.273 35.363 38.273 34.0915 38.3392 32.8227C39.0765 32.8227 39.8167 32.8137 40.5576 32.8047L40.5585 32.8046C42.0427 32.7866 43.5295 32.7685 45.001 32.8227C44.0791 34.759 42.8263 34.7898 41.5868 34.8202C40.3879 34.8497 39.2016 34.8789 38.3392 36.6318ZM36.3633 56.9788C31.0244 58.1515 27.4524 46.5058 33.5296 45.9237C39.6196 45.3673 39.4659 51.3935 33.9435 49.9126L36.3633 56.9788Z" fill="#EE3441"/>
</svg>
