<svg width="195" height="195" viewBox="0 0 195 195" fill="none" xmlns="http://www.w3.org/2000/svg">
<path d="M173.206 128.44L146.201 164.015C139.914 158.307 133.633 152.593 127.5 146.718L111.256 131.424C118.23 124.052 125.103 116.582 132.278 109.419C140.377 101.162 148.712 93.1396 157.459 85.5401L165.778 78.3101L157.689 69.4093L104.023 10.3948L94.5737 0L85.1585 10.3948L31.6286 69.542L23.5332 78.4902L32.0788 85.6253C41.5885 93.5722 50.9407 101.687 59.9905 110.126C67.7236 117.11 75.2204 124.349 82.7551 131.548L51.5739 165.389L19.75 126.5L0 147.934L41.976 185.749L52.2448 195L61.0489 185.37C68.8607 176.829 76.4773 168.089 84.5002 159.76L97.689 145.796L113.835 161.21C122.854 169.681 131.56 178.484 140.389 187.151L147.574 194.201L155.468 186.472L195 147.764L173.206 128.44ZM55.6593 77.5016L94.4539 38.0196L132.196 77.5804L117.102 94.1978L96.054 117.103C88.5225 110.013 80.9533 102.963 73.6234 95.6633C67.4968 89.76 61.5466 83.6671 55.6593 77.5016Z" fill="#BC8417"/>
</svg>
