<svg width="123" height="177" viewBox="0 0 123 177" fill="none" xmlns="http://www.w3.org/2000/svg">
<path d="M90.502 117.485C90.9783 116.861 91.452 116.232 91.9309 115.608C94.0208 113.008 96.1266 110.432 98.3208 107.937C100.459 105.39 102.763 103.005 104.981 100.536C107.242 98.1099 109.557 95.7402 111.895 93.392L116.278 88.9846L111.895 84.5532C109.533 82.1648 107.186 79.7683 104.901 77.305C102.642 74.8121 100.317 72.3889 98.1496 69.813C95.1205 66.3375 92.1744 62.779 89.3809 59.0705C90.9195 56.6205 92.45 54.1678 94.0368 51.7472C102.926 38.2762 112.187 25.0409 123 12.7721L102.575 0C96.2925 15.099 88.4604 29.2341 80.2536 43.1362C76.1301 50.0738 71.7658 56.8588 67.4604 63.6787C65.4642 66.8168 63.4868 69.9657 61.5014 73.1092C59.5132 69.9657 57.5358 66.8168 55.5396 63.6787C51.2342 56.8588 46.8699 50.0738 42.7464 43.1362C34.5397 29.2341 26.7075 15.099 20.4246 0L0 12.7721C10.813 25.0409 20.0795 38.2762 28.9686 51.7472C30.5553 54.1705 32.0859 56.6232 33.6245 59.0732C32.8673 60.072 32.1073 61.068 31.342 62.0614C29.2201 64.6908 27.0821 67.3014 24.8612 69.821C22.6937 72.4049 20.3578 74.8175 18.1101 77.3157C15.8142 79.7737 13.4675 82.1755 11.102 84.5532L6.71633 88.9632L11.102 93.392C13.4327 95.7482 15.7526 98.1152 18.0057 100.546C20.232 103.013 22.5251 105.406 24.6631 107.953C27.3604 111.051 29.98 114.221 32.4927 117.501C30.9273 119.839 29.386 122.19 27.8099 124.522C18.7683 137.899 9.56878 151.18 0 164.228L20.4246 177C27.9491 162.675 35.8481 148.583 43.9051 134.59C49.6795 124.559 55.5664 114.604 61.5014 104.675C67.4364 114.604 73.3205 124.559 79.095 134.59C87.1519 148.583 95.0509 162.675 102.575 177L123 164.228C113.431 151.18 104.232 137.899 95.1954 124.522C93.6167 122.184 92.0701 119.828 90.502 117.485ZM98.4974 88.9793C97.6358 89.8067 96.7956 90.6582 95.9233 91.4722C93.4562 93.6919 91.072 95.9973 88.5273 98.1394C86.2448 100.15 83.882 102.075 81.5059 103.99C78.0835 98.7927 74.6986 93.5713 71.3163 88.3447C74.3909 83.2786 77.5108 78.2341 80.6148 73.1814C83.2452 75.2753 85.8059 77.4362 88.3292 79.6398C90.9061 81.8087 93.325 84.1355 95.8189 86.3901C96.7287 87.2362 97.601 88.1198 98.4974 88.9793ZM34.4835 98.126C31.9388 95.9839 29.5492 93.6865 27.0875 91.4641C26.2071 90.6474 25.3669 89.7933 24.4999 88.9632C25.391 88.1064 26.2606 87.2255 27.1651 86.3794C29.6643 84.1302 32.0725 81.7926 34.6547 79.6237C37.162 77.4094 39.7602 75.2833 42.3772 73.168C45.4865 78.2233 48.6092 83.2733 51.6891 88.3447C48.3068 93.5713 44.9192 98.7927 41.4968 103.993C39.11 102.083 36.7793 100.123 34.4835 98.126Z" fill="#BC8417"/>
</svg>
